# xmcd CD database file
#
# Track frame offsets:
#	150
#	9137
#	28135
#	53975
#	83142
#	107432
#	132687
#	156602
#	184842
#	215175
#
# Disc length: 3065 seconds
#
# Revision: 0
# Processed by: cddbd v1.5PL3 Copyright (c) Steve Scherf et al.
# Submitted via: CDex 1.50
#
DISCID=8c0bf70a
DTITLE=The Gallery - Dreamscapes
DYEAR=1997
DGENRE=New Age
TTITLE0=Ea
TTITLE1=Unfaded Dream
TTITLE2=Soporific
TTITLE3=A Voyage Into Infinity
TTITLE4=Kalokagathia
TTITLE5=Schwanenfleet
TTITLE6=Cordiality Dying
TTITLE7=Meadowland
TTITLE8=Elemente
TTITLE9=Foreign Energy
EXTD=YEAR: 1997
EXTT0=
EXTT1=
EXTT2=
EXTT3=
EXTT4=
EXTT5=
EXTT6=
EXTT7=
EXTT8=
EXTT9=
PLAYORDER=
